# xmcd CD database file
#
# Track frame offsets:
#	150
#	10949
#	25941
#	37076
#	45453
#	57124
#	77430
#	82833
#	87750
#	96156
#	105706
#	138758
#	142398
#	147463
#	162808
#	181977
#	190370
#	196366
#
# Disc length: 2852 seconds
#
# Revision: 1
# Processed by: cddbd v1.5.1PL0 Copyright (c) Steve Scherf et al.
# Submitted via: CDex 1.51
#
DISCID=ec0b2212
DTITLE=Jan Hruby - Cesty...
DYEAR=2001
DGENRE=
TTITLE0=Kometa
TTITLE1=Koleda
TTITLE2=Standrle pod vezi
TTITLE3=Na louce u Trhanova
TTITLE4=Archangelo Correli - La Folia
TTITLE5=Zima
TTITLE6=Vzpominky
TTITLE7=Poledni slunce nad obzorem (na ostrove Harstad)
TTITLE8=Vosa v lahvi
TTITLE9=Leta
TTITLE10=Dvorakova stezka
TTITLE11=Dudacke pozdraveni
TTITLE12=Jeste jednou mi zahrajte
TTITLE13=Hluboka noc
TTITLE14=Americka mazurka
TTITLE15=Zatmeni mesice '97
TTITLE16=Obrazek z Moravy
TTITLE17=Prichod Jezise Krista
EXTD=YEAR: 2001
EXTT0=
EXTT1=
EXTT2=
EXTT3=
EXTT4=
EXTT5=
EXTT6=
EXTT7=
EXTT8=
EXTT9=
EXTT10=
EXTT11=
EXTT12=
EXTT13=
EXTT14=
EXTT15=
EXTT16=
EXTT17=
PLAYORDER=
